<svg viewBox="0 0 1000 800" xmlns="http://www.w3.org/2000/svg">
  <!-- Background and Borders -->
  <rect x="10" y="10" width="980" height="780" rx="10" fill="#f8f9fa" stroke="#dee2e6" stroke-width="2"/>
  
  <!-- Title -->
  <text x="500" y="40" font-family="Arial, sans-serif" font-size="24" font-weight="bold" text-anchor="middle" fill="#343a40">Modern Internal Developer Platform Architecture</text>
  
  <!-- AWS Cloud Container -->
  <rect x="30" y="70" width="940" height="650" rx="10" fill="#f1faff" stroke="#86b7fe" stroke-width="2" stroke-dasharray="5,5"/>
  <text x="90" y="100" font-family="Arial, sans-serif" font-size="18" font-weight="bold" fill="#0d6efd">AWS Cloud</text>
  
  <!-- EKS Cluster Container -->
  <rect x="50" y="120" width="900" height="580" rx="10" fill="#fff" stroke="#6c757d" stroke-width="2"/>
  <text x="160" y="145" font-family="Arial, sans-serif" font-size="16" font-weight="bold" fill="#495057">EKS Cluster</text>
  
  <!-- VPC -->
  <rect x="80" y="160" width="840" height="520" rx="5" fill="#f8f9fa" stroke="#adb5bd" stroke-width="1" stroke-dasharray="5,3"/>
  <text x="110" y="180" font-family="Arial, sans-serif" font-size="14" fill="#6c757d">VPC</text>
  
  <!-- Platform Namespace -->
  <rect x="100" y="200" width="380" height="220" rx="8" fill="#e6f7ff" stroke="#0dcaf0" stroke-width="2"/>
  <text x="170" y="225" font-family="Arial, sans-serif" font-size="16" font-weight="bold" fill="#0dcaf0">Platform Namespace</text>
  
  <!-- ArgoCD -->
  <rect x="120" y="240" width="150" height="80" rx="8" fill="#fff" stroke="#0dcaf0" stroke-width="2"/>
  <text x="195" y="285" font-family="Arial, sans-serif" font-size="14" font-weight="bold" text-anchor="middle" fill="#0275d8">Argo CD</text>
  
  <!-- Backstage -->
  <rect x="310" y="240" width="150" height="80" rx="8" fill="#fff" stroke="#0dcaf0" stroke-width="2"/>
  <text x="385" y="285" font-family="Arial, sans-serif" font-size="14" font-weight="bold" text-anchor="middle" fill="#0275d8">Backstage</text>
  
  <!-- OPA/Gatekeeper -->
  <rect x="120" y="330" width="150" height="80" rx="8" fill="#fff" stroke="#0dcaf0" stroke-width="2"/>
  <text x="195" y="375" font-family="Arial, sans-serif" font-size="14" font-weight="bold" text-anchor="middle" fill="#0275d8">OPA/Gatekeeper</text>
  
  <!-- Policy Store -->
  <rect x="310" y="330" width="150" height="80" rx="8" fill="#fff" stroke="#0dcaf0" stroke-width="2"/>
  <text x="385" y="365" font-family="Arial, sans-serif" font-size="14" font-weight="bold" text-anchor="middle" fill="#0275d8">Policy</text>
  <text x="385" y="385" font-family="Arial, sans-serif" font-size="14" font-weight="bold" text-anchor="middle" fill="#0275d8">Repository</text>
  
  <!-- Monitoring Namespace -->
  <rect x="520" y="200" width="380" height="220" rx="8" fill="#fff3cd" stroke="#ffc107" stroke-width="2"/>
  <text x="590" y="225" font-family="Arial, sans-serif" font-size="16" font-weight="bold" fill="#fd7e14">Monitoring Namespace</text>
  
  <!-- Prometheus -->
  <rect x="540" y="240" width="150" height="80" rx="8" fill="#fff" stroke="#ffc107" stroke-width="2"/>
  <text x="615" y="285" font-family="Arial, sans-serif" font-size="14" font-weight="bold" text-anchor="middle" fill="#dc3545">Prometheus</text>
  
  <!-- Grafana -->
  <rect x="730" y="240" width="150" height="80" rx="8" fill="#fff" stroke="#ffc107" stroke-width="2"/>
  <text x="805" y="285" font-family="Arial, sans-serif" font-size="14" font-weight="bold" text-anchor="middle" fill="#dc3545">Grafana</text>
  
  <!-- Jaeger -->
  <rect x="540" y="330" width="150" height="80" rx="8" fill="#fff" stroke="#ffc107" stroke-width="2"/>
  <text x="615" y="375" font-family="Arial, sans-serif" font-size="14" font-weight="bold" text-anchor="middle" fill="#dc3545">Jaeger</text>
  
  <!-- OTEL Collector -->
  <rect x="730" y="330" width="150" height="80" rx="8" fill="#fff" stroke="#ffc107" stroke-width="2"/>
  <text x="805" y="365" font-family="Arial, sans-serif" font-size="14" font-weight="bold" text-anchor="middle" fill="#dc3545">OpenTelemetry</text>
  <text x="805" y="385" font-family="Arial, sans-serif" font-size="14" font-weight="bold" text-anchor="middle" fill="#dc3545">Collector</text>
  
  <!-- Application Namespaces -->
  <rect x="100" y="430" width="380" height="210" rx="8" fill="#d1e7dd" stroke="#198754" stroke-width="2"/>
  <text x="170" y="455" font-family="Arial, sans-serif" font-size="16" font-weight="bold" fill="#198754">Production Namespace</text>
  
  <!-- Frontend -->
  <rect x="120" y="470" width="150" height="60" rx="8" fill="#fff" stroke="#198754" stroke-width="2"/>
  <text x="195" y="505" font-family="Arial, sans-serif" font-size="14" font-weight="bold" text-anchor="middle" fill="#198754">Frontend</text>
  
  <!-- Backend v1 -->
  <rect x="120" y="540" width="150" height="60" rx="8" fill="#fff" stroke="#198754" stroke-width="2"/>
  <text x="195" y="575" font-family="Arial, sans-serif" font-size="14" font-weight="bold" text-anchor="middle" fill="#198754">Backend v1</text>
  
  <!-- Backend v2 -->
  <rect x="310" y="540" width="150" height="60" rx="8" fill="#fff" stroke="#198754" stroke-width="2"/>
  <text x="385" y="575" font-family="Arial, sans-serif" font-size="14" font-weight="bold" text-anchor="middle" fill="#198754">Backend v2</text>
  
  <!-- MongoDB -->
  <rect x="310" y="470" width="150" height="60" rx="8" fill="#fff" stroke="#198754" stroke-width="2"/>
  <text x="385" y="505" font-family="Arial, sans-serif" font-size="14" font-weight="bold" text-anchor="middle" fill="#198754">MongoDB</text>
  
  <!-- Dev Namespace -->
  <rect x="520" y="430" width="380" height="210" rx="8" fill="#f8d7da" stroke="#dc3545" stroke-width="2"/>
  <text x="590" y="455" font-family="Arial, sans-serif" font-size="16" font-weight="bold" fill="#dc3545">Development Namespace</text>
  
  <!-- Frontend Dev -->
  <rect x="540" y="470" width="150" height="60" rx="8" fill="#fff" stroke="#dc3545" stroke-width="2"/>
  <text x="615" y="505" font-family="Arial, sans-serif" font-size="14" font-weight="bold" text-anchor="middle" fill="#dc3545">Frontend</text>
  
  <!-- Backend Dev -->
  <rect x="730" y="470" width="150" height="60" rx="8" fill="#fff" stroke="#dc3545" stroke-width="2"/>
  <text x="805" y="505" font-family="Arial, sans-serif" font-size="14" font-weight="bold" text-anchor="middle" fill="#dc3545">Backend</text>
  
  <!-- MongoDB Dev -->
  <rect x="630" y="540" width="150" height="60" rx="8" fill="#fff" stroke="#dc3545" stroke-width="2"/>
  <text x="705" y="575" font-family="Arial, sans-serif" font-size="14" font-weight="bold" text-anchor="middle" fill="#dc3545">MongoDB</text>
  
  <!-- Service Mesh -->
  <rect x="100" y="650" width="800" height="50" rx="8" fill="#e2e3e5" stroke="#6c757d" stroke-width="2"/>
  <text x="500" y="682" font-family="Arial, sans-serif" font-size="16" font-weight="bold" text-anchor="middle" fill="#6c757d">Istio Service Mesh</text>
  
  <!-- External Components -->
  <rect x="30" y="730" width="150" height="80" rx="8" fill="#fff" stroke="#6610f2" stroke-width="2"/>
  <text x="105" y="775" font-family="Arial, sans-serif" font-size="14" font-weight="bold" text-anchor="middle" fill="#6610f2">Developer Workstation</text>
  
  <rect x="200" y="730" width="150" height="80" rx="8" fill="#fff" stroke="#6610f2" stroke-width="2"/>
  <text x="275" y="775" font-family="Arial, sans-serif" font-size="14" font-weight="bold" text-anchor="middle" fill="#6610f2">GitHub Repository</text>
  
  <rect x="370" y="730" width="150" height="80" rx="8" fill="#fff" stroke="#6610f2" stroke-width="2"/>
  <text x="445" y="775" font-family="Arial, sans-serif" font-size="14" font-weight="bold" text-anchor="middle" fill="#6610f2">GitHub Actions</text>
  
  <rect x="540" y="730" width="150" height="80" rx="8" fill="#fff" stroke="#6610f2" stroke-width="2"/>
  <text x="615" y="775" font-family="Arial, sans-serif" font-size="14" font-weight="bold" text-anchor="middle" fill="#6610f2">Users</text>
  
  <rect x="710" y="730" width="150" height="80" rx="8" fill="#fff" stroke="#6610f2" stroke-width="2"/>
  <text x="785" y="765" font-family="Arial, sans-serif" font-size="14" font-weight="bold" text-anchor="middle" fill="#6610f2">AWS Load</text>
  <text x="785" y="785" font-family="Arial, sans-serif" font-size="14" font-weight="bold" text-anchor="middle" fill="#6610f2">Balancer</text>
  
  <!-- Connection Lines -->
  <!-- Backstage to ArgoCD -->
  <line x1="310" y1="280" x2="270" y2="280" stroke="#0dcaf0" stroke-width="2"/>
  
  <!-- ArgoCD to Apps -->
  <path d="M 195 320 L 195 440" stroke="#0dcaf0" stroke-width="2" fill="none"/>
  <path d="M 195 440 L 350 440" stroke="#0dcaf0" stroke-width="2" fill="none"/>
  <path d="M 350 440 L 350 430" stroke="#0dcaf0" stroke-width="2" fill="none"/>
  <path d="M 350 440 L 350 450" stroke="#0dcaf0" stroke-width="2" fill="none"/>
  
  <!-- Gatekeeper to Policies -->
  <line x1="270" y1="370" x2="310" y2="370" stroke="#0dcaf0" stroke-width="2"/>
  
  <!-- OTEL Collector to Monitoring -->
  <line x1="730" y1="370" x2="690" y2="370" stroke="#ffc107" stroke-width="2"/>
  <line x1="690" y1="370" x2="690" y2="280" stroke="#ffc107" stroke-width="2"/>
  <line x1="690" y1="280" x2="730" y2="280" stroke="#ffc107" stroke-width="2"/>
  
  <!-- OTEL Collector to Apps -->
  <path d="M 730 370 L 690 370" stroke="#ffc107" stroke-width="2" fill="none"/>
  <path d="M 690 370 L 690 500" stroke="#ffc107" stroke-width="2" fill="none"/>
  <path d="M 690 500 L 500 500" stroke="#ffc107" stroke-width="2" fill="none"/>
  <path d="M 690 500 L 690 570" stroke="#ffc107" stroke-width="2" fill="none"/>
  <path d="M 690 570 L 630 570" stroke="#ffc107" stroke-width="2" fill="none"/>
  
  <!-- Service Dependencies -->
  <line x1="195" y1="530" x2="195" y2="540" stroke="#198754" stroke-width="2"/>
  <line x1="195" y1="540" x2="310" y2="540" stroke="#198754" stroke-width="2"/>
  <line x1="195" y1="470" x2="195" y2="450" stroke="#198754" stroke-width="2"/>
  <line x1="195" y1="450" x2="310" y2="450" stroke="#198754" stroke-width="2"/>
  <line x1="310" y1="450" x2="310" y2="470" stroke="#198754" stroke-width="2"/>
  
  <!-- Service Mesh Integration -->
  <line x1="195" y1="600" x2="195" y2="650" stroke="#6c757d" stroke-width="2"/>
  <line x1="385" y1="600" x2="385" y2="650" stroke="#6c757d" stroke-width="2"/>
  <line x1="615" y1="600" x2="615" y2="650" stroke="#6c757d" stroke-width="2"/>
  <line x1="805" y1="530" x2="805" y2="650" stroke="#6c757d" stroke-width="2"/>
  
  <!-- External connections -->
  <path d="M 105 730 L 105 650" stroke="#6610f2" stroke-width="2" stroke-dasharray="5,3" fill="none"/>
  <path d="M 275 730 L 275 650" stroke="#6610f2" stroke-width="2" stroke-dasharray="5,3" fill="none"/>
  <path d="M 445 730 L 445 650" stroke="#6610f2" stroke-width="2" stroke-dasharray="5,3" fill="none"/>
  <path d="M 615 730 L 615 650" stroke="#6610f2" stroke-width="2" stroke-dasharray="5,3" fill="none"/>
  <path d="M 785 730 L 785 650" stroke="#6610f2" stroke-width="2" stroke-dasharray="5,3" fill="none"/>

  <!-- GitHub to ArgoCD -->
  <path d="M 275 730 L 275 700" stroke="#6610f2" stroke-width="2" stroke-dasharray="5,3" fill="none"/>
  <path d="M 275 700 L 195 700" stroke="#6610f2" stroke-width="2" stroke-dasharray="5,3" fill="none"/>
  <path d="M 195 700 L 195 320" stroke="#6610f2" stroke-width="2" stroke-dasharray="5,3" fill="none"/>

  <!-- GitHub Actions to GitHub -->
  <line x1="370" y1="770" x2="350" y2="770" stroke="#6610f2" stroke-width="2"/>
</svg>